<svg width="115" height="21" viewBox="0 0 115 21" fill="none" xmlns="http://www.w3.org/2000/svg">
<g clip-path="url(#clip0_7_2759)">
<path d="M5.66849 1.05828C4.27882 1.28589 3.16469 1.86891 2.18634 2.87922C1.37171 3.7218 0.844591 4.70814 0.601 5.84224C0.477208 6.42925 0.473215 7.51543 0.601 8.09046C0.756739 8.80526 1.06023 9.58395 1.37969 10.0911L1.48751 10.2628H3.6958L5.9001 10.2588L6.31939 9.55999C6.55899 9.15667 6.78661 8.82123 6.8505 8.77731C7.02621 8.64952 7.27778 8.63754 7.46547 8.74536C7.60124 8.82123 7.74899 9.02889 8.47577 10.167C8.94299 10.9017 9.33433 11.5007 9.3503 11.5007C9.36228 11.5007 9.90138 10.3826 10.5483 9.01291C11.1912 7.64721 11.7622 6.46519 11.8102 6.38533C12.0617 5.99398 12.5929 6.03392 12.8444 6.4612C12.9043 6.56502 13.3875 7.45553 13.9186 8.44586L14.885 10.2428L17.4088 10.2548L19.9285 10.2628L20.0883 9.98328C21.1784 8.09845 21.2064 5.95006 20.1681 4.12512C19.2816 2.57173 17.8041 1.48955 16.051 1.11019C15.468 0.986396 14.3818 0.986396 13.8028 1.11019C12.7925 1.32982 11.902 1.75311 11.0435 2.41999C10.8358 2.58371 10.692 2.66757 10.6601 2.6516C10.6361 2.63163 10.5163 2.54378 10.4005 2.44794C9.60188 1.79703 8.61554 1.32583 7.61721 1.11019C7.13003 1.00636 6.14369 0.982403 5.66849 1.05828Z" fill="#00C978"/>
<path d="M11.4308 9.95123C9.83746 13.3216 9.90934 13.1858 9.71367 13.2936C9.51401 13.4054 9.26642 13.3934 9.08672 13.2657C9.02283 13.2217 8.59156 12.5828 8.09639 11.8081C7.61719 11.0494 7.20988 10.4344 7.1979 10.4424C7.18192 10.4504 7.05813 10.6461 6.92236 10.8737C6.76263 11.1372 6.62686 11.3169 6.54699 11.3649C6.42719 11.4367 6.29941 11.4407 4.43055 11.4607L2.44189 11.4807L6.43119 15.442C9.94927 18.9321 10.4404 19.4033 10.5722 19.4313C10.9316 19.4992 10.732 19.6789 14.9848 15.438C17.1492 13.2856 18.9262 11.5086 18.9302 11.4886C18.9382 11.4727 17.9279 11.4607 16.682 11.4607C14.1542 11.4607 14.2301 11.4687 14.0464 11.1852C13.9945 11.1053 13.5991 10.3865 13.1679 9.58385C12.7406 8.78519 12.3732 8.11431 12.3532 8.09435C12.3373 8.07837 11.922 8.91297 11.4308 9.95123Z" fill="#00C978"/>
</g>
<path d="M32.0306 15.8589H27.7553V3.24228H32.1169C33.3695 3.24228 34.4455 3.49486 35.345 4.00002C36.2485 4.50107 36.9426 5.22184 37.4272 6.16234C37.9118 7.10283 38.1541 8.22814 38.1541 9.53826C38.1541 10.8525 37.9098 11.9819 37.421 12.9265C36.9364 13.8711 36.2362 14.596 35.3203 15.1012C34.4086 15.6063 33.312 15.8589 32.0306 15.8589ZM30.0408 13.8814H31.9198C32.7986 13.8814 33.5317 13.7212 34.119 13.4009C34.7063 13.0764 35.1478 12.5938 35.4435 11.9532C35.7392 11.3084 35.8871 10.5034 35.8871 9.53826C35.8871 8.57313 35.7392 7.77227 35.4435 7.13569C35.1478 6.495 34.7104 6.01654 34.1314 5.7003C33.5564 5.37996 32.8418 5.21979 31.9875 5.21979H30.0408V13.8814ZM44.4162 16.0437C43.4675 16.0437 42.6482 15.8466 41.9582 15.4523C41.2723 15.0539 40.7446 14.4913 40.375 13.7643C40.0053 13.0333 39.8205 12.1729 39.8205 11.1831C39.8205 10.2098 40.0053 9.3555 40.375 8.62036C40.7487 7.8811 41.2703 7.30613 41.9397 6.89543C42.6092 6.48063 43.3956 6.27323 44.2992 6.27323C44.8824 6.27323 45.4327 6.36769 45.9502 6.55661C46.4718 6.74142 46.9317 7.02891 47.3301 7.41907C47.7326 7.80923 48.0488 8.30617 48.2788 8.9099C48.5088 9.50952 48.6238 10.2241 48.6238 11.0537V11.7375H40.8678V10.2344H46.4861C46.482 9.80727 46.3896 9.42738 46.2089 9.09471C46.0282 8.75794 45.7756 8.49304 45.4512 8.30001C45.1308 8.10699 44.7571 8.01047 44.33 8.01047C43.8741 8.01047 43.4737 8.12136 43.1287 8.34314C42.7837 8.56081 42.5147 8.84829 42.3217 9.2056C42.1328 9.5588 42.0362 9.94691 42.0321 10.3699V11.6821C42.0321 12.2324 42.1328 12.7047 42.334 13.099C42.5352 13.4892 42.8166 13.789 43.178 13.9984C43.5394 14.2038 43.9624 14.3065 44.447 14.3065C44.7715 14.3065 45.0651 14.2613 45.328 14.1709C45.5908 14.0765 45.8188 13.9389 46.0118 13.7582C46.2048 13.5775 46.3506 13.3536 46.4492 13.0867L48.5314 13.3208C48.4 13.8711 48.1495 14.3516 47.7798 14.7623C47.4143 15.1689 46.9461 15.4852 46.3753 15.711C45.8044 15.9328 45.1514 16.0437 44.4162 16.0437ZM58.6915 6.39643L55.3218 15.8589H52.8576L49.4878 6.39643H51.8658L54.0404 13.4255H54.139L56.3198 6.39643H58.6915ZM60.3333 15.8589V3.24228H62.6188V8.58339H68.4651V3.24228H70.7568V15.8589H68.4651V10.4993H62.6188V15.8589H60.3333ZM77.3331 16.0437C76.3843 16.0437 75.565 15.8466 74.875 15.4523C74.1892 15.0539 73.6614 14.4913 73.2918 13.7643C72.9222 13.0333 72.7374 12.1729 72.7374 11.1831C72.7374 10.2098 72.9222 9.3555 73.2918 8.62036C73.6655 7.8811 74.1871 7.30613 74.8566 6.89543C75.526 6.48063 76.3125 6.27323 77.216 6.27323C77.7992 6.27323 78.3495 6.36769 78.867 6.55661C79.3886 6.74142 79.8486 7.02891 80.2469 7.41907C80.6494 7.80923 80.9657 8.30617 81.1957 8.9099C81.4256 9.50952 81.5406 10.2241 81.5406 11.0537V11.7375H73.7846V10.2344H79.403C79.3989 9.80727 79.3065 9.42738 79.1257 9.09471C78.945 8.75794 78.6925 8.49304 78.368 8.30001C78.0477 8.10699 77.6739 8.01047 77.2468 8.01047C76.7909 8.01047 76.3905 8.12136 76.0455 8.34314C75.7005 8.56081 75.4315 8.84829 75.2385 9.2056C75.0496 9.5588 74.9531 9.94691 74.949 10.3699V11.6821C74.949 12.2324 75.0496 12.7047 75.2508 13.099C75.4521 13.4892 75.7334 13.789 76.0948 13.9984C76.4562 14.2038 76.8792 14.3065 77.3639 14.3065C77.6883 14.3065 77.982 14.2613 78.2448 14.1709C78.5076 14.0765 78.7356 13.9389 78.9286 13.7582C79.1216 13.5775 79.2674 13.3536 79.366 13.0867L81.4482 13.3208C81.3168 13.8711 81.0663 14.3516 80.6967 14.7623C80.3311 15.1689 79.8629 15.4852 79.2921 15.711C78.7212 15.9328 78.0682 16.0437 77.3331 16.0437ZM86.1502 16.0499C85.5506 16.0499 85.0105 15.9431 84.53 15.7295C84.0536 15.5118 83.6758 15.1915 83.3965 14.7685C83.1213 14.3455 82.9837 13.8239 82.9837 13.2037C82.9837 12.6698 83.0823 12.2283 83.2794 11.8792C83.4766 11.5301 83.7456 11.2509 84.0864 11.0414C84.4273 10.832 84.8113 10.6738 85.2385 10.5671C85.6697 10.4562 86.1153 10.3761 86.5753 10.3268C87.1297 10.2693 87.5794 10.218 87.9244 10.1728C88.2694 10.1235 88.5199 10.0496 88.676 9.95101C88.8362 9.84834 88.9162 9.69022 88.9162 9.47666V9.4397C88.9162 8.97561 88.7787 8.61625 88.5035 8.36162C88.2283 8.10699 87.832 7.97967 87.3145 7.97967C86.7683 7.97967 86.335 8.09877 86.0147 8.33698C85.6984 8.57518 85.4849 8.85651 85.374 9.18096L83.2918 8.88526C83.456 8.31028 83.7271 7.82977 84.1049 7.44371C84.4828 7.05355 84.9448 6.76195 85.491 6.56893C86.0373 6.37179 86.641 6.27323 87.3022 6.27323C87.7581 6.27323 88.2119 6.32662 88.6637 6.4334C89.1154 6.54018 89.5282 6.71678 89.9019 6.9632C90.2756 7.20551 90.5755 7.53612 90.8013 7.95503C91.0313 8.37394 91.1463 8.89758 91.1463 9.52594V15.8589H89.0025V14.559H88.9286C88.793 14.8219 88.6021 15.0683 88.3556 15.2983C88.1133 15.5242 87.8074 15.7069 87.4377 15.8466C87.0722 15.9821 86.643 16.0499 86.1502 16.0499ZM86.7293 14.4112C87.1769 14.4112 87.565 14.3229 87.8936 14.1463C88.2222 13.9656 88.4747 13.7274 88.6513 13.4317C88.832 13.136 88.9224 12.8136 88.9224 12.4645V11.3494C88.8526 11.4069 88.7335 11.4603 88.5651 11.5096C88.4008 11.5589 88.216 11.602 88.0107 11.639C87.8053 11.6759 87.602 11.7088 87.4008 11.7375C87.1995 11.7663 87.025 11.7909 86.8771 11.8115C86.5445 11.8566 86.2467 11.9306 85.9839 12.0332C85.721 12.1359 85.5136 12.2797 85.3617 12.4645C85.2097 12.6452 85.1337 12.8793 85.1337 13.1668C85.1337 13.5775 85.2836 13.8875 85.5834 14.097C85.8832 14.3065 86.2652 14.4112 86.7293 14.4112ZM95.6188 3.24228V15.8589H93.3887V3.24228H95.6188ZM102.637 6.39643V8.12136H97.1974V6.39643H102.637ZM98.5404 4.12939H100.77V13.0128C100.77 13.3126 100.816 13.5426 100.906 13.7027C101 13.8588 101.124 13.9656 101.276 14.0231C101.428 14.0806 101.596 14.1093 101.781 14.1093C101.92 14.1093 102.048 14.0991 102.163 14.0785C102.282 14.058 102.372 14.0395 102.434 14.0231L102.81 15.7665C102.69 15.8075 102.52 15.8527 102.298 15.902C102.081 15.9513 101.814 15.98 101.497 15.9883C100.939 16.0047 100.436 15.9205 99.9881 15.7357C99.5405 15.5468 99.1852 15.2552 98.9224 14.8609C98.6636 14.4666 98.5363 13.9738 98.5404 13.3824V4.12939ZM106.936 10.3145V15.8589H104.705V3.24228H106.886V8.00431H106.997C107.219 7.47041 107.562 7.04944 108.026 6.74142C108.494 6.42929 109.09 6.27323 109.812 6.27323C110.47 6.27323 111.043 6.41081 111.531 6.68598C112.02 6.96114 112.398 7.36363 112.665 7.89342C112.936 8.42322 113.071 9.07007 113.071 9.83397V15.8589H110.841V10.179C110.841 9.54237 110.677 9.04748 110.348 8.69428C110.024 8.33698 109.568 8.15832 108.981 8.15832C108.587 8.15832 108.233 8.24457 107.921 8.41706C107.613 8.58545 107.371 8.82981 107.194 9.15016C107.022 9.4705 106.936 9.85861 106.936 10.3145Z" fill="black"/>
<defs>
<clipPath id="clip0_7_2759">
<rect width="20.4457" height="20.4457" fill="white" transform="translate(0.489136)"/>
</clipPath>
</defs>
</svg>
